<svg width="143" height="166" viewBox="0 0 143 166" fill="none" xmlns="http://www.w3.org/2000/svg">
<path d="M50 12.5C60.3 12.5 68.75 20.95 68.75 31.25V50H31.25V31.25C31.25 20.95 39.7 12.5 50 12.5ZM81.25 50V31.25C81.25 14.05 67.2 0 50 0C32.8 0 18.75 14.05 18.75 31.25V50H12.5C9.18479 50 6.00537 51.317 3.66116 53.6612C1.31696 56.0054 0 59.1848 0 62.5V112.5C0 115.815 1.31696 118.995 3.66116 121.339C6.00537 123.683 9.18479 125 12.5 125H87.5C90.8152 125 93.9946 123.683 96.3388 121.339C98.683 118.995 100 115.815 100 112.5V62.5C100 59.1848 98.683 56.0054 96.3388 53.6612C93.9946 51.317 90.8152 50 87.5 50H81.25ZM12.5 62.5H87.5V112.5H12.5V62.5Z" fill="#1768AC"/>
<path d="M93 118.5C93 117.837 93.2634 117.201 93.7322 116.732C94.2011 116.263 94.837 116 95.5 116H115.5C116.163 116 116.799 116.264 117.268 116.733L142.268 141.733C142.737 142.202 143 142.837 143 143.5C143 144.163 142.737 144.799 142.268 145.268L122.268 165.268C121.799 165.737 121.163 166 120.5 166C119.837 166 119.202 165.737 118.733 165.268L93.7325 140.268C93.2636 139.799 93.0001 139.163 93 138.5V118.5ZM98.0001 121V137.465L120.5 159.965L136.965 143.5L114.465 121H98.0001Z" fill="#1768AC"/>
<path d="M110.5 129.75C110.5 130.745 110.105 131.699 109.402 132.402C108.699 133.105 107.745 133.5 106.75 133.5C105.756 133.5 104.802 133.105 104.098 132.402C103.395 131.699 103 130.745 103 129.75C103 128.756 103.395 127.802 104.098 127.098C104.802 126.395 105.756 126 106.75 126C107.745 126 108.699 126.395 109.402 127.098C110.105 127.802 110.5 128.756 110.5 129.75Z" fill="#1768AC"/>
</svg>
